<svg height="512pt" viewBox="0 -40 512 512" width="512pt" xmlns="http://www.w3.org/2000/svg"><path d="m296 8.023438v416h-32v-416zm0 0" fill="#aab2bd"/><path d="m356 168.023438c11.519531 0 21.359375 11.839843 25.679688 28.808593l-21.679688-4.808593c-4.398438 0-8 10.808593-8 24 0 13.28125 3.601562 24 8 24l21.679688-4.800782c-4.320313 16.960938-14.160157 28.800782-25.679688 28.800782-15.441406 0-28-21.4375-28-48 0-26.480469 12.558594-48 28-48zm0 0" fill="#f6bb42"/><path d="m432 208.023438v16l-50.320312 11.199218-21.679688 4.800782c-4.398438 0-8-10.71875-8-24 0-13.191407 3.601562-24 8-24l21.679688 4.808593zm0 0" fill="#ffce54"/><path d="m472 312.023438v48l-87.839844 31.921874-88.160156 32.078126v-416l88.160156 32.089843 87.839844 31.910157zm-40-88v-16l-50.320312-11.191407c-4.320313-16.96875-14.160157-28.808593-25.679688-28.808593-15.441406 0-28 21.519531-28 48 0 26.5625 12.558594 48 28 48 11.519531 0 21.359375-11.832032 25.679688-28.800782zm0 0" fill="#656d78"/><path d="m504 40.023438v80h-32v-48l-87.839844-31.910157v-.089843zm0 0" fill="#434a54"/><path d="m504 120.023438v32h-32v-32zm0 0" fill="#656d78"/><path d="m504 152.023438v128h-32v-128zm0 0" fill="#434a54"/><path d="m504 280.023438v32h-32v-32zm0 0" fill="#656d78"/><path d="m384.160156 391.945312 87.839844-31.921874v-48h32v80h-119.839844zm0 0" fill="#434a54"/><path d="m392 392.023438h80v32h-80zm0 0" fill="#353b44"/><path d="m39.921875 392.023438h80v32h-80zm0 0" fill="#353b44"/><path d="m264 232.023438v128h-24l-16-40h-32l-16-39.910157h-48l-16 39.910157h-32l-16 40h-24v-128zm0 0" fill="#353b44"/><path d="m192 320.023438h32l16 40h-80l16-40zm0 0" fill="#ffce54"/><path d="m128 320.023438 16 40h-80l16-40zm0 0" fill="#ffce54"/><path d="m176 320.023438-16 40h-16l-16-40zm0 0" fill="#353b44"/><path d="m176 280.113281 16 39.910157h-80l16-39.910157zm0 0" fill="#f6bb42"/><path d="m264 208.023438v24h-224v-24zm0 0" fill="#656d78"/><g fill="#a0d468"><path d="m184 184.023438h40v24h-40zm0 0"/><path d="m184 160.023438h40v24h-40zm0 0"/><path d="m184 136.023438h40v24h-40zm0 0"/><path d="m184 112.023438h40v24h-40zm0 0"/><path d="m88 112.023438h40v24h-40zm0 0"/><path d="m88 136.023438h40v24h-40zm0 0"/><path d="m88 160.023438h40v24h-40zm0 0"/><path d="m88 184.023438h40v24h-40zm0 0"/></g><path d="m184 184.023438v24h-56v-96h56zm0 0" fill="#f0f2f5"/><path d="m88 184.023438v24h-48v-136h224v136h-40v-96h-136zm0 0" fill="#353b44"/><path d="m264 360.023438v32h-256v-352h256v32h-224v288zm0 0" fill="#434a54"/><path d="m504 400.046875h-119.871094c-4.425781 0-8-3.574219-8-8 0-4.421875 3.574219-8 8-8h111.871094v-336h-111.871094c-4.425781 0-8-3.574219-8-8 0-4.421875 3.574219-8 8-8h119.871094c4.425781 0 8 3.578125 8 8v352c0 4.425781-3.574219 8-8 8zm0 0"/><path d="m264 400.046875h-256c-4.425781 0-8-3.574219-8-8v-352c0-4.421875 3.574219-8 8-8h256c4.425781 0 8 3.578125 8 8 0 4.425781-3.574219 8-8 8h-248v336h248c4.425781 0 8 3.578125 8 8 0 4.425781-3.574219 8-8 8zm0 0"/><path d="m263.992188 368h-223.992188c-4.425781 0-8-3.574219-8-8v-288c0-4.421875 3.574219-8 8-8h223.992188c4.421874 0 8 3.578125 8 8 0 4.425781-3.578126 8-8 8h-215.992188v272h215.992188c4.421874 0 8 3.578125 8 8 0 4.425781-3.578126 8-8 8zm0 0"/><path d="m296 432c-1.617188 0-3.222656-.496094-4.585938-1.449219-2.140624-1.496093-3.414062-3.941406-3.414062-6.550781v-416c0-2.609375 1.273438-5.054688 3.414062-6.550781 2.136719-1.496094 4.867188-1.863281 7.320313-.960938l176 64c3.160156 1.144531 5.265625 4.144531 5.265625 7.511719v288c0 3.367188-2.105469 6.367188-5.265625 7.511719l-176 64c-.894531.335937-1.8125.488281-2.734375.488281zm8-412.574219v393.160157l160-58.175782v-276.800781zm0 0"/><path d="m503.855469 128h-32c-4.421875 0-8-3.574219-8-8 0-4.421875 3.578125-8 8-8h32c4.425781 0 8 3.578125 8 8 0 4.425781-3.574219 8-8 8zm0 0"/><path d="m503.855469 160h-32c-4.421875 0-8-3.574219-8-8 0-4.421875 3.578125-8 8-8h32c4.425781 0 8 3.578125 8 8 0 4.425781-3.574219 8-8 8zm0 0"/><path d="m503.855469 288h-32c-4.421875 0-8-3.574219-8-8 0-4.421875 3.578125-8 8-8h32c4.425781 0 8 3.578125 8 8 0 4.425781-3.574219 8-8 8zm0 0"/><path d="m503.855469 320h-32c-4.421875 0-8-3.574219-8-8 0-4.421875 3.578125-8 8-8h32c4.425781 0 8 3.578125 8 8 0 4.425781-3.574219 8-8 8zm0 0"/><path d="m39.929688 432.046875c-4.425782 0-8-3.574219-8-8v-32c0-4.421875 3.574218-8 8-8 4.421874 0 8 3.578125 8 8v32c0 4.425781-3.578126 8-8 8zm0 0"/><path d="m119.929688 432.046875h-80c-4.425782 0-8-3.574219-8-8 0-4.421875 3.574218-8 8-8h80c4.421874 0 8 3.578125 8 8 0 4.425781-3.578126 8-8 8zm0 0"/><path d="m119.929688 432.046875c-4.425782 0-8-3.574219-8-8v-32c0-4.421875 3.574218-8 8-8 4.421874 0 8 3.578125 8 8v32c0 4.425781-3.578126 8-8 8zm0 0"/><path d="m392 432.046875c-4.425781 0-8-3.574219-8-8v-32c0-4.421875 3.574219-8 8-8s8 3.578125 8 8v32c0 4.425781-3.574219 8-8 8zm0 0"/><path d="m472 432.046875h-80c-4.425781 0-8-3.574219-8-8 0-4.421875 3.574219-8 8-8h80c4.425781 0 8 3.578125 8 8 0 4.425781-3.574219 8-8 8zm0 0"/><path d="m472 432.046875c-4.425781 0-8-3.574219-8-8v-32c0-4.421875 3.574219-8 8-8s8 3.578125 8 8v32c0 4.425781-3.574219 8-8 8zm0 0"/><path d="m296 432h-32.007812c-4.425782 0-8-3.574219-8-8v-416c0-4.421875 3.574218-8 8-8h32.007812c4.425781 0 8 3.578125 8 8v416c0 4.425781-3.574219 8-8 8zm-24.007812-16h16.007812v-400h-16.007812zm0 0"/><path d="m280.238281 160.046875c-4.421875 0-8.039062-3.574219-8.039062-8 0-4.421875 3.535156-8 7.953125-8h.085937c4.417969 0 8 3.578125 8 8 0 4.425781-3.582031 8-8 8zm0 0"/><path d="m280.238281 224.046875c-4.421875 0-8.039062-3.574219-8.039062-8 0-4.421875 3.535156-8 7.953125-8h.085937c4.417969 0 8 3.578125 8 8 0 4.425781-3.582031 8-8 8zm0 0"/><path d="m280.238281 288.046875c-4.421875 0-8.039062-3.574219-8.039062-8 0-4.421875 3.535156-8 7.953125-8h.085937c4.417969 0 8 3.578125 8 8 0 4.425781-3.582031 8-8 8zm0 0"/><path d="m432.007812 216.046875c-.574218 0-1.160156-.0625-1.742187-.183594l-72-16c-4.3125-.957031-7.035156-5.230469-6.082031-9.542969.960937-4.3125 5.265625-6.976562 9.542968-6.078124l72 16c4.3125.957031 7.035157 5.230468 6.082032 9.542968-.824219 3.726563-4.136719 6.261719-7.800782 6.261719zm0 0"/><path d="m359.992188 248.046875c-3.664063 0-6.976563-2.535156-7.808594-6.261719-.953125-4.3125 1.769531-8.585937 6.082031-9.542968l72-16c4.308594-.914063 8.582031 1.765624 9.542969 6.078124.953125 4.3125-1.769532 8.585938-6.082032 9.542969l-72 16c-.574218.121094-1.160156.183594-1.734374.183594zm0 0"/><path d="m360 248.046875c-11.800781 0-16-16.527344-16-32 0-15.46875 4.199219-32 16-32 4.425781 0 8 3.578125 8 8 0 3.457031-2.183594 6.402344-5.257812 7.511719-1.140626 2.210937-2.742188 8.160156-2.742188 16.488281s1.601562 14.28125 2.742188 16.488281c3.074218 1.113282 5.257812 4.058594 5.257812 7.511719 0 4.425781-3.574219 8-8 8zm0 0"/><path d="m432 232.046875c-4.425781 0-8-3.574219-8-8v-16c0-4.421875 3.574219-8 8-8s8 3.578125 8 8v16c0 4.425781-3.574219 8-8 8zm0 0"/><path d="m356 272.046875c-20.183594 0-36-24.597656-36-56 0-31.398437 15.816406-56 36-56 14.910156 0 28.03125 13.671875 33.425781 34.824219 1.09375 4.28125-1.496093 8.640625-5.777343 9.730468-4.273438 1.085938-8.632813-1.496093-9.726563-5.777343-3.425781-13.40625-10.792969-22.777344-17.921875-22.777344-9.464844 0-20 16.433594-20 40 0 23.570313 10.535156 40 20 40 7.144531 0 14.503906-9.367187 17.921875-22.78125 1.078125-4.289063 5.46875-6.90625 9.71875-5.785156 4.28125 1.089843 6.871094 5.441406 5.785156 9.71875-5.378906 21.167969-18.496093 34.847656-33.425781 34.847656zm0 0"/><path d="m263.992188 240.046875h-223.992188c-4.425781 0-8-3.574219-8-8 0-4.421875 3.574219-8 8-8h223.992188c4.421874 0 8 3.578125 8 8 0 4.425781-3.578126 8-8 8zm0 0"/><path d="m263.992188 216.046875h-223.992188c-4.425781 0-8-3.574219-8-8 0-4.421875 3.574219-8 8-8h223.992188c4.421874 0 8 3.578125 8 8 0 4.425781-3.578126 8-8 8zm0 0"/><path d="m128 192.046875h-40c-4.425781 0-8-3.574219-8-8 0-4.421875 3.574219-8 8-8h40c4.425781 0 8 3.578125 8 8 0 4.425781-3.574219 8-8 8zm0 0"/><path d="m128 168.046875h-40c-4.425781 0-8-3.574219-8-8 0-4.421875 3.574219-8 8-8h40c4.425781 0 8 3.578125 8 8 0 4.425781-3.574219 8-8 8zm0 0"/><path d="m128 144.046875h-40c-4.425781 0-8-3.574219-8-8 0-4.421875 3.574219-8 8-8h40c4.425781 0 8 3.578125 8 8 0 4.425781-3.574219 8-8 8zm0 0"/><path d="m128 120.046875h-40c-4.425781 0-8-3.574219-8-8 0-4.421875 3.574219-8 8-8h40c4.425781 0 8 3.578125 8 8 0 4.425781-3.574219 8-8 8zm0 0"/><path d="m224 192.046875h-40c-4.425781 0-8-3.574219-8-8 0-4.421875 3.574219-8 8-8h40c4.425781 0 8 3.578125 8 8 0 4.425781-3.574219 8-8 8zm0 0"/><path d="m224 168.046875h-40c-4.425781 0-8-3.574219-8-8 0-4.421875 3.574219-8 8-8h40c4.425781 0 8 3.578125 8 8 0 4.425781-3.574219 8-8 8zm0 0"/><path d="m224 144.046875h-40c-4.425781 0-8-3.574219-8-8 0-4.421875 3.574219-8 8-8h40c4.425781 0 8 3.578125 8 8 0 4.425781-3.574219 8-8 8zm0 0"/><path d="m224 120.046875h-40c-4.425781 0-8-3.574219-8-8 0-4.421875 3.574219-8 8-8h40c4.425781 0 8 3.578125 8 8 0 4.425781-3.574219 8-8 8zm0 0"/><path d="m224 216.046875c-4.425781 0-8-3.574219-8-8v-96c0-4.421875 3.574219-8 8-8s8 3.578125 8 8v96c0 4.425781-3.574219 8-8 8zm0 0"/><path d="m88 216.046875c-4.425781 0-8-3.574219-8-8v-96c0-4.421875 3.574219-8 8-8s8 3.578125 8 8v96c0 4.425781-3.574219 8-8 8zm0 0"/><path d="m128 216.046875c-4.425781 0-8-3.574219-8-8v-96c0-4.421875 3.574219-8 8-8s8 3.578125 8 8v96c0 4.425781-3.574219 8-8 8zm0 0"/><path d="m184 216.046875c-4.425781 0-8-3.574219-8-8v-96c0-4.421875 3.574219-8 8-8s8 3.578125 8 8v96c0 4.425781-3.574219 8-8 8zm0 0"/><path d="m184 120.046875h-56c-4.425781 0-8-3.574219-8-8 0-4.421875 3.574219-8 8-8h56c4.425781 0 8 3.578125 8 8 0 4.425781-3.574219 8-8 8zm0 0"/><path d="m64 368c-.992188 0-2-.175781-2.976562-.566406-4.101563-1.648438-6.09375-6.304688-4.457032-10.410156l16-39.949219c1.648438-4.105469 6.296875-6.105469 10.410156-4.457031 4.101563 1.648437 6.09375 6.304687 4.457032 10.40625l-16 39.953124c-1.265625 3.128907-4.265625 5.023438-7.433594 5.023438zm0 0"/><path d="m224 328.046875h-144c-4.425781 0-8-3.574219-8-8 0-4.421875 3.574219-8 8-8h144c4.425781 0 8 3.578125 8 8 0 4.425781-3.574219 8-8 8zm0 0"/><path d="m144 368c-3.167969 0-6.167969-1.894531-7.433594-5.023438l-16-39.953124c-1.636718-4.101563.355469-8.757813 4.457032-10.40625 4.097656-1.640626 8.761718.351562 10.410156 4.457031l16 39.949219c1.636718 4.105468-.355469 8.761718-4.457032 10.410156-.976562.390625-1.984374.566406-2.976562.566406zm0 0"/><path d="m112 328.023438c-.992188 0-2-.175782-2.976562-.566407-4.101563-1.648437-6.09375-6.304687-4.457032-10.410156l16-39.949219c1.648438-4.113281 6.296875-6.097656 10.410156-4.457031 4.101563 1.648437 6.09375 6.304687 4.457032 10.40625l-16 39.953125c-1.265625 3.128906-4.265625 5.023438-7.433594 5.023438zm0 0"/><path d="m176 288.074219h-48c-4.425781 0-8-3.578125-8-8 0-4.425781 3.574219-8 8-8h48c4.425781 0 8 3.574219 8 8 0 4.421875-3.574219 8-8 8zm0 0"/><path d="m192 328.023438c-3.167969 0-6.167969-1.894532-7.433594-5.023438l-16-39.953125c-1.636718-4.101563.355469-8.757813 4.457032-10.40625 4.097656-1.632813 8.761718.351563 10.410156 4.457031l16 39.949219c1.636718 4.105469-.355469 8.761719-4.457032 10.410156-.976562.390625-1.984374.566407-2.976562.566407zm0 0"/><path d="m160 368c-.992188 0-2-.175781-2.976562-.566406-4.101563-1.648438-6.09375-6.304688-4.457032-10.410156l16-39.949219c1.648438-4.105469 6.296875-6.105469 10.410156-4.457031 4.101563 1.648437 6.09375 6.304687 4.457032 10.40625l-16 39.953124c-1.265625 3.128907-4.265625 5.023438-7.433594 5.023438zm0 0"/><path d="m240 368c-3.167969 0-6.167969-1.894531-7.433594-5.023438l-16-39.953124c-1.636718-4.101563.355469-8.757813 4.457032-10.40625 4.105468-1.640626 8.753906.351562 10.410156 4.457031l16 39.949219c1.636718 4.105468-.355469 8.761718-4.457032 10.410156-.976562.390625-1.984374.566406-2.976562.566406zm0 0"/></svg>