<svg enable-background="new 0 0 110 110" height="512" viewBox="0 0 110 110" width="512" xmlns="http://www.w3.org/2000/svg"><path d="m39.3518372 34.1464844c-.1617813 0-.3260612-.0458641-.4711609-.1421814-.3927727-.2605972-.5003471-.7905502-.2401657-1.1837387 1.5477409-2.333704 2.9553871-3.7588615 4.1136894-4.6282158-2.3924942-.8109798-3.5558014-2.6168194-3.6216812-2.7210579-.2510071-.3994446-.1309242-.9264774.2685204-1.1774845.3986092-.2522583.9256401-.1305084 1.1774826.2685204.0650444.1009026 1.6461449 2.507576 5.016819 2.2978458.1676178-.0220985.2793617-.0220985.3268967-.0208473l.0533676 1.7036839c-.0708809.0066719-.1409302.0125084-.210144.0175114-.4928436.0883961-2.7302322.7225857-5.7006302 5.2040329-.1651117.2476729-.4361345.3819312-.7129937.3819312z" fill="#dbd8dd"/><path d="m66.3449707 14.5433712c-2.1034393-2.1615019-8.4162674 3.8531456-11.4323196 3.8531456-3.0160561 0-9.3288803-6.0146475-11.4323196-3.8531456-2.391037 2.4572277 4.7326622 12.8719139 4.7326622 12.8719139h13.3993111c-.0000001 0 7.1237029-10.4146862 4.7326659-12.8719139z" fill="#feda6f"/><path d="m61.6123009 27.4153156h-13.3992996s-31.6586666 28.1800098-21.9799328 55.9675903c6.1122837 17.5483246 50.706604 15.8774948 57.3591766 0 10.2554035-24.4762592-21.9799442-55.9675903-21.9799442-55.9675903z" fill="#feda6f"/><path d="m62.4735298 25.8872566h-15.1217575c-.9529533 0-1.7255745.7726212-1.7255745 1.725626 0 .9530582.7726212 1.7256794 1.7255745 1.7256794h15.1217575c.9529533 0 1.7255745-.7726212 1.7255745-1.7256794 0-.9530048-.7726211-1.725626-1.7255745-1.725626z" fill="#ededed"/><circle cx="54.913" cy="67.071" fill="#f7be56" r="16.493"/><circle cx="54.913" cy="67.072" fill="#fff" r="13.168"/><path d="m54.3793869 77.136795v-1.9997406c-.9998703-.1259079-1.8127289-.3499527-2.4385719-.6721344s-1.1665154-.8424835-1.6220093-1.5609055c-.4554977-.7184296-.7202797-1.5960922-.794342-2.6329956l2.010849-.3777237c.1555367 1.0739288.4295731 1.8627167.8221169 2.3663559.5628891.7110214 1.2368736 1.1072617 2.0219574 1.188736v-6.3658371c-.8221169-.1555405-1.6627464-.4740143-2.5218925-.9554367-.6369553-.3555069-1.1276321-.8480377-1.4720306-1.4775848-.3444023-.6295471-.5166016-1.344265-.5166016-2.1441612 0-1.422039.5036392-2.5737381 1.5109138-3.4551048.6739883-.5925179 1.6738586-.9554329 2.9996109-1.0887489v-.9554291h1.1776237v.9554291c1.1628113.1110954 2.0849152.4517937 2.7663078 1.0220909.8739586.7258301 1.3998146 1.7219963 1.5775719 2.9884987l-2.0663986.3110695c-.1185036-.7850838-.364769-1.3868561-.7387924-1.8053207-.3740273-.4184647-.8869209-.6943512-1.5386887-.8276672v5.7659149c1.0072746.2518158 1.6738548.4480896 1.9997406.5888138.622139.2740326 1.1294823.6073227 1.5220222.9998703.3925438.39254.694355.8591461.9054375 1.3998108.2110825.5406723.3166275 1.1257858.3166275 1.7553329 0 1.3850021-.4406853 2.5404053-1.322052 3.4662094-.8813667.9258118-2.0219574 1.4220428-3.4217758 1.4887009v2.0219574h-1.1776238zm0-17.508831c-.7776756.1185036-1.3905602.4295731-1.8386497.9332123-.4480896.5036354-.6721344 1.0998573-.6721344 1.7886543 0 .6813927.1907158 1.2516899.5721474 1.7108917.3814316.459198 1.0276451.8258133 1.9386368 1.0998535v-5.5326118zm1.1776238 13.8204231c.7776756-.096283 1.4201851-.4332809 1.9275284-1.0109787.5073395-.5777054.7610092-1.2924271.7610092-2.144165 0-.7258377-.1796036-1.3090897-.5388184-1.7497711-.359211-.4406891-1.0757866-.835083-2.1497192-1.1831818z" fill="#f7be56"/></svg>