<svg height="511pt" viewBox="-24 0 511 511.99976" width="511pt" xmlns="http://www.w3.org/2000/svg"><path d="m208.578125 423.191406c-4.222656 0-7.644531 3.425782-7.644531 7.648438v48.796875l-36.929688-12.839844c-3.988281-1.386719-8.34375.722656-9.730468 4.710937-1.390626 3.988282.71875 8.347657 4.710937 9.734376l24.648437 8.570312-24.3125 7.207031c-4.046874 1.199219-6.359374 5.457031-5.15625 9.503907.984376 3.324218 4.027344 5.476562 7.328126 5.476562.71875 0 1.449218-.105469 2.175781-.320312l47.085937-13.957032c3.246094-.964844 5.472656-3.945312 5.472656-7.332031v-59.554687c0-4.21875-3.425781-7.644532-7.648437-7.644532zm0 0" fill="#ffa812"/><path d="m294.191406 417.960938c-4.226562 0-7.648437 3.421874-7.648437 7.648437v54.03125l-36.925781-12.84375c-3.988282-1.386719-8.347657.722656-9.734376 4.710937-1.386718 3.988282.722657 8.347657 4.710938 9.734376l24.648438 8.570312-24.3125 7.207031c-4.046876 1.203125-6.355469 5.457031-5.15625 9.503907.984374 3.324218 4.027343 5.476562 7.328124 5.476562.71875 0 1.449219-.101562 2.175782-.316406l47.085937-13.960938c3.246094-.960937 5.472657-3.945312 5.472657-7.332031v-64.785156c0-4.222657-3.421876-7.644531-7.644532-7.644531zm0 0" fill="#ffa812"/><path d="m39.183594 243.121094c-3.410156-28.957032-3.664063-53.019532-1.710938-73.042969-.003906 0-50.121094 35.011719-33.648437 60.933594 8.421875 13.25 23.09375 14.527343 35.425781 12.609375-.023438-.167969-.046875-.332032-.066406-.5zm0 0" fill="#ff4755"/><path d="m36.832031 216.421875c-11.375 1.324219-24.199219-.414063-32.164062-11.679687-4.558594 8.722656-6.125 17.960937-.84375 26.265624 8.421875 13.253907 23.09375 14.527344 35.421875 12.613282-.019532-.167969-.042969-.332032-.0625-.5-1.109375-9.410156-1.878906-18.292969-2.351563-26.699219zm0 0" fill="#fc2b3a"/><path d="m48.597656 122.433594c-27.234375 7.523437-46.382812 14.484375-44.667968 27.160156 1.578124 11.667969 23.699218 18.15625 33.542968 20.484375 1.898438-19.457031 5.886719-35.09375 11.125-47.644531zm0 0" fill="#ffa812"/><path d="m12.347656 135.871094c-6.003906 3.847656-9.15625 8.253906-8.417968 13.722656 1.578124 11.667969 23.699218 18.15625 33.542968 20.484375.605469-6.226563 1.429688-12.054687 2.4375-17.519531-9.949218-2.816406-24.203125-8.226563-27.5625-16.6875zm0 0" fill="#ff9a00"/><path d="m80.21875 82.460938c15.519531-10.066407 30.429688-11.15625 35.699219-11.28125 30.46875-.734376 46.96875 10.4375 57.835937 26.648437 9.34375-4.921875 28.492188-17.230469 22.667969-33.070313-8.273437-22.511718-30.929687-9.335937-30.929687-9.335937s6.554687-15.953125-7.625-26.316406c-14.183594-10.363281-31.542969-.660157-31.542969-.660157-4.332031-33.035156-50.769531-40.253906-68.660157-5.820312-14.222656 27.371094 12.855469 52.148438 22.554688 59.835938zm0 0" fill="#ff4755"/><path d="m173.753906 97.828125c5.339844-2.8125 13.878906-8.042969 19.132813-14.964844-15.167969-15.746093-36.308594-30.574219-62.980469-32.261719-29.859375-1.886718-52.164062 5.851563-66.929688 13.957032 5.886719 8.304687 13.128907 14.640625 17.242188 17.902344 15.519531-10.066407 30.429688-11.15625 35.699219-11.28125 30.46875-.734376 46.96875 10.4375 57.835937 26.648437zm0 0" fill="#fc2b3a"/><path d="m115.917969 71.179688c-14 .335937-96.105469 7.433593-76.734375 171.941406 16.996094 144.332031 119.039062 189.953125 198.941406 189.707031 116.132812-.359375 260.933594-97.9375 218.519531-251.476563 0 0-12.828125-57.058593-57.050781-54.601562-44.21875 2.457031-42.773438 89.40625-138.1875 79.84375-96.792969-9.703125-44.554688-137.851562-145.488281-135.414062zm0 0" fill="#ffe9c8"/><path d="m238.125 405.300781c-79.902344.246094-181.945312-45.375-198.941406-189.707031-1.375-11.667969-2.222656-22.519531-2.636719-32.660156-.792969 17.261718-.070313 37.183594 2.636719 60.1875 16.996094 144.332031 119.039062 189.953125 198.941406 189.707031 105.777344-.328125 235.324219-81.308594 225.546875-211.761719-8.839844 114.222656-127.421875 183.929688-225.546875 184.234375zm0 0" fill="#ffdca7"/><path d="m263.707031 353.273438c-27.433593 0-57.324219-7.683594-82.429687-32.441407-22.871094-22.558593-30.636719-48.546875-30.957032-49.640625-1.183593-4.054687 1.144532-8.300781 5.199219-9.484375 4.046875-1.175781 8.289063 1.140625 9.476563 5.1875.097656.328125 7.234375 23.769531 27.457031 43.476563 26.785156 26.101562 63.160156 33.824218 108.121094 22.960937 28.121093-6.796875 44.339843-22.4375 52.988281-34.363281 10.480469-14.449219 15.527344-31.609375 13.5-45.90625-.597656-4.183594 2.3125-8.054688 6.492188-8.644531 4.1875-.59375 8.054687 2.3125 8.644531 6.492187 5.179687 36.46875-23.179688 84.03125-78.035157 97.285156-12.074218 2.917969-25.921874 5.078126-40.457031 5.078126zm0 0" fill="#ffcf86"/><path d="m113.308594 124.882812c-8.761719 0-15.621094 8.535157-15.621094 19.425782 0 10.894531 6.859375 19.425781 15.621094 19.425781 8.757812 0 15.617187-8.53125 15.617187-19.425781 0-10.890625-6.859375-19.425782-15.617187-19.425782zm0 0" fill="#433f43"/></svg>