<?xml version="1.0" encoding="utf-8"?>
<!-- Generator: Adobe Illustrator 22.0.1, SVG Export Plug-In . SVG Version: 6.00 Build 0)  -->
<svg version="1.1" id="Capa_1" xmlns="http://www.w3.org/2000/svg" xmlns:xlink="http://www.w3.org/1999/xlink" x="0px" y="0px"
	 viewBox="0 0 512 512" style="enable-background:new 0 0 512 512;" xml:space="preserve">
<style type="text/css">
	.st0{fill:#FF0000;}
	.st1{fill:#983262;}
	.st2{fill:#FFDC00;}
</style>
<circle class="st0" cx="256" cy="256" r="256"/>
<path class="st1" d="M286.4,227.2h-60.8V90.4c0-16.8,13.6-30.4,30.4-30.4l0,0c16.8,0,30.4,13.6,30.4,30.4V227.2z"/>
<path class="st1" d="M286.4,90.4c0-16.8-13.6-30.4-30.4-30.4c-0.1,0-0.2,0-0.3,0v167.2h30.7V90.4L286.4,90.4z"/>
<rect x="133" y="215.8" class="st1" width="246" height="23.1"/>
<rect x="255.7" y="215.8" class="st1" width="123.3" height="23.1"/>
<polygon class="st2" points="167.8,287 167.5,373.7 321,373.7 330.4,297 339.7,373.7 350.9,373.7 360.3,313.3 369.6,373.7 
	390.4,373.7 379,239 133,239 121.6,373.7 151,373.7 "/>
<polygon class="st2" points="379,239 255.7,239 255.7,373.7 321,373.7 330.4,297 339.7,373.7 350.9,373.7 360.3,313.3 369.6,373.7 
	390.4,373.7 "/>
</svg>
