<svg height="512" viewBox="0 0 64 64" width="512" xmlns="http://www.w3.org/2000/svg"><circle cx="32" cy="32" fill="#ff9811" r="30"/><circle cx="32" cy="32" fill="#ffda44" r="25"/><path d="m11.494 11.494 41.012 41.012" fill="#ff5023"/><path d="m11.494 52.506 41.012-41.012" fill="#ff5023"/><circle cx="25" cy="15" fill="#ab2300" r="4"/><circle cx="14" cy="23" fill="#ff5023" r="2"/><circle cx="20" cy="27" fill="#ff5023" r="2"/><circle cx="15.5" cy="39.5" fill="#ab2300" r="4"/><circle cx="23.5" cy="50.5" fill="#ff5023" r="2"/><circle cx="27.5" cy="44.5" fill="#ff5023" r="2"/><circle cx="39" cy="49" fill="#ab2300" r="4"/><circle cx="50" cy="41" fill="#ff5023" r="2"/><circle cx="44" cy="37" fill="#ff5023" r="2"/><circle cx="48.5" cy="24.5" fill="#ab2300" r="4"/><circle cx="40.5" cy="13.5" fill="#ff5023" r="2"/><circle cx="36.5" cy="19.5" fill="#ff5023" r="2"/><g fill="#231f20"><path d="m32 1a31 31 0 1 0 31 31 31.035 31.035 0 0 0 -31-31zm28.975 30h-3a25.9 25.9 0 0 0 -6.909-16.652l2.121-2.121a28.885 28.885 0 0 1 7.788 18.773zm-11.323-18.066a25.9 25.9 0 0 0 -16.652-6.909v-3a28.885 28.885 0 0 1 18.773 7.788zm-18.652 16.652-15.239-15.239a23.91 23.91 0 0 1 15.239-6.322zm0 26.389a23.91 23.91 0 0 1 -15.239-6.322l15.239-15.239zm2-21.561 15.239 15.239a23.91 23.91 0 0 1 -15.239 6.322zm0-26.389a23.91 23.91 0 0 1 15.239 6.322l-15.239 15.239zm-2-2a25.9 25.9 0 0 0 -16.652 6.909l-2.121-2.121a28.885 28.885 0 0 1 18.773-7.788zm-1.414 24.975h-21.561a23.91 23.91 0 0 1 6.322-15.239zm0 2-15.239 15.239a23.91 23.91 0 0 1 -6.322-15.239zm-15.238 18.066a25.9 25.9 0 0 0 16.652 6.909v3a28.885 28.885 0 0 1 -18.773-7.788zm18.652 6.909a25.9 25.9 0 0 0 16.652-6.909l2.121 2.121a28.885 28.885 0 0 1 -18.773 7.788zm1.414-24.975h21.561a23.91 23.91 0 0 1 -6.322 15.239zm0-2 15.239-15.239a23.91 23.91 0 0 1 6.322 15.239zm-23.6-18.773 2.121 2.121a25.9 25.9 0 0 0 -6.91 16.652h-3a28.885 28.885 0 0 1 7.788-18.773zm-7.789 20.773h3a25.9 25.9 0 0 0 6.909 16.652l-2.121 2.121a28.885 28.885 0 0 1 -7.788-18.773zm50.162 18.773-2.121-2.121a25.9 25.9 0 0 0 6.909-16.652h3a28.885 28.885 0 0 1 -7.788 18.773z"/><path d="m25 20a5 5 0 1 0 -5-5 5.006 5.006 0 0 0 5 5zm0-8a3 3 0 1 1 -3 3 3 3 0 0 1 3-3z"/><path d="m14 26a3 3 0 1 0 -3-3 3 3 0 0 0 3 3zm0-4a1 1 0 1 1 -1 1 1 1 0 0 1 1-1z"/><path d="m20 30a3 3 0 1 0 -3-3 3 3 0 0 0 3 3zm0-4a1 1 0 1 1 -1 1 1 1 0 0 1 1-1z"/><path d="m15.5 44.5a5 5 0 1 0 -5-5 5.006 5.006 0 0 0 5 5zm0-8a3 3 0 1 1 -3 3 3 3 0 0 1 3-3z"/><path d="m23.5 53.5a3 3 0 1 0 -3-3 3 3 0 0 0 3 3zm0-4a1 1 0 1 1 -1 1 1 1 0 0 1 1-1z"/><path d="m27.5 47.5a3 3 0 1 0 -3-3 3 3 0 0 0 3 3zm0-4a1 1 0 1 1 -1 1 1 1 0 0 1 1-1z"/><path d="m13 28h-1a1 1 0 0 0 0 2h1a1 1 0 0 0 0-2z"/><path d="m29 21h-1a1 1 0 0 0 0 2h1a1 1 0 0 0 0-2z"/><path d="m23 37h1a1 1 0 0 0 0-2h-1a1 1 0 0 0 0 2z"/><path d="m28.293 49.293-1 1a1 1 0 1 0 1.414 1.414l1-1a1 1 0 0 0 -1.414-1.414z"/><path d="m39 44a5 5 0 1 0 5 5 5.006 5.006 0 0 0 -5-5zm0 8a3 3 0 1 1 3-3 3 3 0 0 1 -3 3z"/><path d="m50 38a3 3 0 1 0 3 3 3 3 0 0 0 -3-3zm0 4a1 1 0 1 1 1-1 1 1 0 0 1 -1 1z"/><path d="m44 34a3 3 0 1 0 3 3 3 3 0 0 0 -3-3zm0 4a1 1 0 1 1 1-1 1 1 0 0 1 -1 1z"/><path d="m48.5 19.5a5 5 0 1 0 5 5 5.006 5.006 0 0 0 -5-5zm0 8a3 3 0 1 1 3-3 3 3 0 0 1 -3 3z"/><path d="m40.5 10.5a3 3 0 1 0 3 3 3 3 0 0 0 -3-3zm0 4a1 1 0 1 1 1-1 1 1 0 0 1 -1 1z"/><path d="m36.5 16.5a3 3 0 1 0 3 3 3 3 0 0 0 -3-3zm0 4a1 1 0 1 1 1-1 1 1 0 0 1 -1 1z"/><path d="m51 36h1a1 1 0 0 0 0-2h-1a1 1 0 0 0 0 2z"/><path d="m35 43h1a1 1 0 0 0 0-2h-1a1 1 0 0 0 0 2z"/><path d="m41 27h-1a1 1 0 0 0 0 2h1a1 1 0 0 0 0-2z"/><path d="m35 15a1 1 0 0 0 .707-.293l1-1a1 1 0 0 0 -1.414-1.414l-1 1a1 1 0 0 0 .707 1.707z"/></g></svg>