<?xml version="1.0" encoding="iso-8859-1"?>
<!-- Generator: Adobe Illustrator 19.0.0, SVG Export Plug-In . SVG Version: 6.00 Build 0)  -->
<svg version="1.1" id="Capa_1" xmlns="http://www.w3.org/2000/svg" xmlns:xlink="http://www.w3.org/1999/xlink" x="0px" y="0px"
	 viewBox="0 0 509.287 509.287" style="enable-background:new 0 0 509.287 509.287;" xml:space="preserve">
<g>
	<path style="fill:#F2B654;" d="M501.658,316.355c5.086-19.666,7.46-40.35,7.46-61.711C509.457,113.928,395.528,0,254.813,0
		S0.169,113.928,0.169,254.644s113.928,254.644,254.644,254.644c23.735,0,46.453-3.391,68.154-9.494l-68.154-245.15L501.658,316.355
		z"/>
	<path style="fill:#F2B654;" d="M496.572,333.987l-212.938-53.234l59.338,212.938C415.533,466.903,472.498,407.905,496.572,333.987z
		"/>
</g>
<g>
	<path style="fill:#FDDA76;" d="M463.682,306.861c4.069-16.615,6.442-34.246,6.442-52.217c0-119.015-96.297-215.311-215.311-215.311
		S39.502,135.629,39.502,254.644s96.297,215.311,215.311,215.311c20.005,0,39.332-2.713,57.642-7.799l-57.642-207.513
		L463.682,306.861z"/>
	<path style="fill:#FDDA76;" d="M458.596,324.493l-174.962-43.74l48.827,174.962C391.459,432.657,437.912,384.509,458.596,324.493z"
		/>
</g>
<g>
	<circle style="fill:#FD7855;" cx="142.241" cy="313.642" r="32.89"/>
	<circle style="fill:#FD7855;" cx="142.241" cy="159.025" r="32.89"/>
	<circle style="fill:#FD7855;" cx="350.771" cy="211.921" r="32.89"/>
	<circle style="fill:#FD7855;" cx="377.896" cy="360.095" r="27.126"/>
	<circle style="fill:#FD7855;" cx="231.078" cy="401.123" r="32.89"/>
</g>
<g>
	<circle style="fill:#533A36;" cx="215.48" cy="313.642" r="17.293"/>
	<circle style="fill:#533A36;" cx="283.634" cy="85.107" r="17.293"/>
	<circle style="fill:#533A36;" cx="98.161" cy="235.995" r="17.293"/>
	<circle style="fill:#533A36;" cx="436.217" cy="254.644" r="17.293"/>
	<circle style="fill:#533A36;" cx="320.254" cy="320.424" r="12.207"/>
</g>
<g>
	<circle style="fill:#94B540;" cx="249.049" cy="202.426" r="16.276"/>
	<circle style="fill:#94B540;" cx="361.621" cy="118.675" r="16.275"/>
	<circle style="fill:#94B540;" cx="198.527" cy="109.181" r="16.275"/>
	<circle style="fill:#94B540;" cx="142.241" cy="394.342" r="16.276"/>
	<circle style="fill:#94B540;" cx="165.637" cy="244.811" r="16.276"/>
</g>
<g>
</g>
<g>
</g>
<g>
</g>
<g>
</g>
<g>
</g>
<g>
</g>
<g>
</g>
<g>
</g>
<g>
</g>
<g>
</g>
<g>
</g>
<g>
</g>
<g>
</g>
<g>
</g>
<g>
</g>
</svg>
