<?xml version="1.0" encoding="iso-8859-1"?>
<!-- Generator: Adobe Illustrator 19.0.0, SVG Export Plug-In . SVG Version: 6.00 Build 0)  -->
<svg version="1.1" id="Layer_1" xmlns="http://www.w3.org/2000/svg" xmlns:xlink="http://www.w3.org/1999/xlink" x="0px" y="0px"
	 viewBox="0 0 512 512" style="enable-background:new 0 0 512 512;" xml:space="preserve">
<g>
	<path style="fill:#F18700;" d="M494.015,198.207c0-0.09-0.011-0.179-0.013-0.269l0.013-4.43c0.005,0.848-0.032,1.697-0.101,2.544
		c-0.967-12.477-9.642-24.721-26.139-34.255c-17.462-10.073-40.129-15.076-62.944-15.08c-22.814,0.005-45.427,5.009-62.779,15.084
		c-138.462,80.464,18.225-10.543-80.456,46.804c0.114,0.066,0.234,0.135,0.349,0.202C170.43,261.99,171.338,260.268,43.82,334.375
		c-16.617,9.666-25.153,22.116-25.776,34.771c-0.008-0.269-0.037-0.536-0.038-0.805l-0.005,2.012
		c-0.001,0.144-0.017,0.288-0.016,0.433c0.001,0.095,0.011,0.191,0.014,0.286l-0.014,4.896c0.022,1.411,0.085,3.292,0.2,4.699
		c0.108,1.32,0.315,3.075,0.538,4.38c0.302,1.765,0.819,4.097,1.261,5.832c0.309,1.215,0.821,2.81,1.241,3.992
		c0.419,1.178,1.693,4.762,4.018,8.947c2.3,4.14,4.311,6.73,5.642,8.444c0.625,0.805,1.491,1.852,2.181,2.601
		c0.574,0.623,1.326,1.466,1.915,2.073c0.678,0.699,1.592,1.624,2.31,2.283c1.249,1.146,2.941,2.646,4.265,3.704
		c1.786,1.427,2.426,1.876,4.807,3.545c1.909,1.339,5.51,3.499,7.678,4.618c2.743,1.415,3.095,1.597,5.186,2.544
		c2.499,1.132,4.56,1.918,5.237,2.177c5.4,2.062,10.091,3.258,10.608,3.388c2.273,0.569,3.774,0.947,5.363,1.258
		c0.811,0.159,1.888,0.39,2.702,0.53c1.619,0.277,3.779,0.631,5.404,0.86c4.191,0.59,9.086,0.912,10.898,0.973
		c1.64,0.054,3.827,0.139,5.469,0.121c0.821-0.009,1.915-0.013,2.736-0.03c0.82-0.018,1.913-0.064,2.732-0.091
		c0.82-0.027,1.913-0.097,2.732-0.151c1.818-0.121,1.818-0.121,5.452-0.487c0.816-0.083,1.899-0.235,2.712-0.335
		c1.533-0.19,3.161-0.472,5.414-0.863c0.023-0.004,2.423-0.428,5.417-1.135c1.605-0.378,3.732-0.938,5.316-1.396
		c4.824-1.394,8.752-2.948,10.688-3.767c0.921-0.39,2.836-1.2,5.27-2.407c1.534-0.761,3.533-1.866,5.027-2.702l0.001-0.001
		c23.544-13.682,302.476-174.83,302.476-174.83l0.001-0.001c1.64-0.956,4.453-2.656,7.616-5.022
		c0.782-0.584,1.817-1.372,2.561-2.003c1.293-1.096,2.999-2.58,4.225-3.75c2.553-2.438,4.728-5.057,4.747-5.08
		c1.071-1.333,2.466-3.139,3.463-4.529c0.661-0.923,1.464-2.207,2.061-3.172c0.625-1.011,1.41-2.391,1.94-3.454
		c0.779-1.565,1.741-3.691,2.423-5.3c0.492-1.16,1.018-2.757,1.411-3.955c0.277-0.843,0.579-1.987,0.818-2.842
		c0.354-1.261,0.691-2.978,0.938-4.264c0.17-0.884,0.341-2.073,0.455-2.966c0.162-1.272,0.298-2.977,0.377-4.256
		c0.056-0.903,0.052-2.109,0.074-3.012l0.007-2.523C494.002,198.477,494.015,198.342,494.015,198.207z"/>
	<path style="fill:#F18700;" d="M18.006,368.341l-0.005,2.012c0.004-0.403,0.023-0.806,0.043-1.209
		C18.035,368.877,18.008,368.609,18.006,368.341z"/>
	<path style="fill:#F18700;" d="M494.015,193.508c0.005,0.848-0.032,1.697-0.101,2.544c0.049,0.628,0.079,1.257,0.089,1.887
		L494.015,193.508z"/>
	<path style="fill:#F18700;" d="M468.18,234.62c-134.229,78.005-166.398,95.964-298.228,172.576
		c-1.188,0.69-2.406,1.351-3.641,1.994l-0.006,2.317c-0.001,0.28-0.014,0.55-0.02,0.823c0.006-0.275,0.019-0.544,0.02-0.823
		l0.006-2.317c-16.812,8.738-37.885,13.085-59.137,13.09c-22.814-0.004-45.481-5.008-62.944-15.081
		c-17.323-10.011-26.025-23.009-26.231-36.126l-0.014,4.896c0.022,1.411,0.085,3.292,0.2,4.699c0.108,1.32,0.315,3.075,0.538,4.38
		c0.302,1.765,0.819,4.097,1.261,5.832c0.309,1.215,0.821,2.81,1.241,3.992c0.419,1.178,1.693,4.762,4.018,8.947
		c2.3,4.14,4.311,6.73,5.642,8.444c0.625,0.805,1.491,1.852,2.181,2.601c0.574,0.623,1.326,1.466,1.915,2.073
		c0.678,0.699,1.592,1.624,2.31,2.283c1.249,1.146,2.941,2.646,4.265,3.704c1.786,1.427,2.426,1.876,4.807,3.545
		c1.909,1.339,5.51,3.499,7.678,4.618c2.743,1.415,3.095,1.597,5.186,2.544c2.499,1.132,4.56,1.918,5.237,2.177
		c5.4,2.062,10.091,3.258,10.608,3.388c2.273,0.569,3.774,0.947,5.363,1.258c0.811,0.159,1.888,0.39,2.702,0.53
		c1.619,0.277,3.779,0.631,5.404,0.86c4.191,0.59,9.086,0.912,10.898,0.973c1.64,0.054,3.827,0.139,5.469,0.121
		c0.821-0.009,1.915-0.013,2.736-0.03c0.82-0.018,1.913-0.064,2.732-0.091c0.82-0.027,1.913-0.097,2.732-0.151
		c1.818-0.121,1.818-0.121,5.452-0.487c0.816-0.083,1.899-0.235,2.712-0.335c1.533-0.19,3.161-0.472,5.414-0.863
		c0.023-0.004,2.423-0.428,5.417-1.135c1.605-0.378,3.732-0.938,5.316-1.396c4.824-1.394,8.752-2.948,10.688-3.767
		c0.921-0.39,2.836-1.2,5.27-2.407c1.534-0.761,3.533-1.866,5.027-2.702l0.001-0.001c23.544-13.682,302.476-174.83,302.476-174.83
		l0.001-0.001c1.641-0.956,4.453-2.656,7.616-5.022c0.782-0.584,1.817-1.372,2.561-2.003c1.293-1.096,2.999-2.58,4.225-3.75
		c2.553-2.438,4.728-5.057,4.747-5.08c1.071-1.333,2.466-3.139,3.463-4.529c0.661-0.923,1.464-2.207,2.061-3.172
		c0.625-1.011,1.41-2.391,1.94-3.454c0.78-1.565,1.741-3.691,2.423-5.3c0.492-1.16,1.018-2.757,1.411-3.955
		c0.277-0.843,0.579-1.987,0.818-2.842c0.354-1.261,0.691-2.978,0.938-4.264c0.17-0.884,0.341-2.073,0.455-2.966
		c0.162-1.272,0.298-2.977,0.377-4.256c0.056-0.903,0.052-2.109,0.074-3.012l0.007-2.523
		C493.89,211.69,485.337,224.639,468.18,234.62z"/>
</g>
<path style="fill:#FEDAAA;" d="M44.23,407.199c17.462,10.073,40.129,15.076,62.944,15.081c21.252-0.005,42.325-4.352,59.137-13.09
	l0,0c1.236-0.643,2.453-1.303,3.641-1.994c131.831-76.612,163.999-94.571,298.228-172.576c17.158-9.981,25.711-22.93,25.82-36.007
	c0.001-0.136,0.016-0.271,0.015-0.405c0-0.09-0.011-0.179-0.013-0.269c-0.009-0.629-0.041-1.258-0.089-1.887
	c-0.967-12.477-9.642-24.721-26.139-34.255c-17.462-10.073-40.129-15.076-62.944-15.08c-22.814,0.005-45.427,5.009-62.779,15.084
	c-138.462,80.464,18.225-10.543-80.456,46.804c0.114,0.066,0.234,0.135,0.349,0.202c-91.515,53.183-90.607,51.461-218.126,125.567
	c-16.617,9.666-25.153,22.116-25.776,34.771c-0.02,0.402-0.04,0.806-0.043,1.209c-0.001,0.144-0.017,0.288-0.016,0.433
	c0.001,0.095,0.011,0.191,0.014,0.286C18.204,384.191,26.906,397.189,44.23,407.199z"/>
<path style="fill:#C3FB3A;" d="M476.816,148.435L476.816,148.435L476.816,148.435c-10.008-5.778-37.901,4.118-50.191,1.178
	c-1.796-0.43-3.495-1.163-5.127-2.105c-3.648-2.107-6.962-5.258-10.272-8.406c-3.306-3.154-6.61-6.302-10.237-8.396
	c-2.639-1.523-5.45-2.489-8.558-2.489c-13.552,0-21.238,18.345-33.953,21.397c-12.25,2.945-40.254-6.96-50.204-1.177
	c-34.206,19.878-12.787,32.243-46.992,52.122s-55.623,7.512-89.829,27.39s-12.787,32.243-46.992,52.122
	c-34.205,19.878-55.623,7.512-89.829,27.39c-9.943,5.778,7.24,21.971,2.195,29.076C31.609,343.906-0.044,348.422,0,356.271
	c0.01,1.8,1.686,3.426,4.328,4.951c3.626,2.093,9.069,3.997,14.517,5.904c5.453,1.909,10.913,3.818,14.564,5.926
	c1.628,0.939,2.896,1.919,3.643,2.956c5.117,7.109-11.877,23.298-1.868,29.076c10.015,5.782,37.901-4.118,50.191-1.178
	c1.792,0.429,3.487,1.16,5.115,2.1c3.65,2.108,6.964,5.264,10.278,8.417c3.309,3.15,6.614,6.297,10.239,8.389
	c2.642,1.525,5.453,2.491,8.562,2.491c13.552,0,21.245-18.349,33.953-21.397c12.258-2.94,40.261,6.955,50.204,1.177
	c34.206-19.878,12.787-32.243,46.992-52.122c34.205-19.878,55.623-7.512,89.836-27.394c34.206-19.878,12.787-32.243,46.992-52.122
	c34.197-19.874,55.616-7.508,89.822-27.386c9.951-5.782-7.233-21.967-2.195-29.076c5.228-7.375,36.881-11.883,36.829-19.737
	c-0.014-1.801-1.689-3.426-4.328-4.951c-3.626-2.093-9.071-3.996-14.525-5.899c-5.448-1.907-10.902-3.819-14.55-5.925
	c-1.632-0.942-2.903-1.924-3.649-2.961C469.831,170.402,486.833,154.217,476.816,148.435"/>
<g>
	<path style="fill:#CD2A01;" d="M477.243,187.36c0.247-12.76-8.065-25.578-24.927-35.314
		c-33.098-19.109-86.588-19.108-119.472,0.002c-16.388,9.524-24.563,21.997-24.547,34.48c0-0.04-0.002-0.08-0.002-0.12
		l-0.072,17.725c-0.036,12.604,8.283,25.226,24.938,34.841c33.098,19.109,86.588,19.11,119.472,0.001
		c16.336-9.493,24.513-21.918,24.549-34.36l0.072-17.725C477.253,187.046,477.246,187.203,477.243,187.36z"/>
	<path style="fill:#CD2A01;" d="M477.254,186.888l-0.072,17.725c-0.036,12.443-8.213,24.868-24.549,34.36
		c-32.883,19.109-86.373,19.108-119.47-0.001c-16.656-9.616-24.974-22.239-24.938-34.841l0.072-17.725
		c-0.036,12.604,8.283,25.226,24.938,34.841c33.098,19.109,86.588,19.11,119.471,0.001
		C469.041,211.756,477.219,199.332,477.254,186.888z"/>
</g>
<path style="fill:#FF3502;" d="M452.315,152.045c33.098,19.109,33.273,50.094,0.39,69.204s-86.373,19.108-119.471-0.001
	s-33.273-50.091-0.39-69.2S419.217,132.936,452.315,152.045z"/>
<g>
	<path style="fill:#CD2A01;" d="M351.901,256.767c0.247-12.76-8.065-25.578-24.927-35.314
		c-33.098-19.109-86.588-19.108-119.472,0.002c-16.388,9.524-24.563,21.997-24.547,34.48c0-0.04-0.002-0.08-0.002-0.12
		l-0.072,17.725c-0.036,12.604,8.283,25.226,24.938,34.841c33.098,19.109,86.588,19.11,119.472,0.001
		c16.336-9.493,24.513-21.918,24.549-34.36l0.072-17.725C351.911,256.452,351.904,256.609,351.901,256.767z"/>
	<path style="fill:#CD2A01;" d="M351.911,256.296l-0.072,17.725c-0.036,12.443-8.213,24.868-24.549,34.36
		c-32.883,19.109-86.373,19.108-119.472-0.001c-16.656-9.616-24.974-22.239-24.938-34.841l0.072-17.725
		c-0.036,12.604,8.283,25.226,24.938,34.841c33.098,19.109,86.588,19.11,119.472,0.001
		C343.698,281.162,351.876,268.738,351.911,256.296z"/>
</g>
<path style="fill:#FF3502;" d="M326.974,221.452c33.098,19.109,33.273,50.095,0.39,69.204
	c-32.883,19.109-86.373,19.108-119.472-0.001c-33.098-19.109-33.273-50.091-0.39-69.2S293.875,202.343,326.974,221.452z"/>
<g>
	<path style="fill:#CD2A01;" d="M227,329.154c0.247-12.76-8.065-25.578-24.927-35.314c-33.098-19.109-86.588-19.107-119.472,0.002
		c-16.388,9.524-24.563,21.997-24.547,34.48c0-0.04-0.002-0.08-0.002-0.12l-0.071,17.725c-0.036,12.604,8.283,25.226,24.938,34.842
		c33.098,19.109,86.588,19.11,119.472,0.001c16.336-9.493,24.513-21.918,24.549-34.36l0.072-17.725
		C227.01,328.841,227.003,328.997,227,329.154z"/>
	<path style="fill:#CD2A01;" d="M227.011,328.683l-0.072,17.725c-0.036,12.443-8.213,24.868-24.549,34.36
		c-32.883,19.109-86.373,19.108-119.472-0.001c-16.656-9.616-24.974-22.239-24.938-34.842l0.072-17.725
		c-0.036,12.604,8.283,25.226,24.938,34.842c33.098,19.109,86.588,19.11,119.472,0.001
		C218.799,353.551,226.976,341.127,227.011,328.683z"/>
</g>
<path style="fill:#FF3502;" d="M202.073,293.84c33.098,19.109,33.273,50.093,0.39,69.204
	c-32.883,19.109-86.373,19.108-119.472-0.001c-33.098-19.109-33.273-50.091-0.39-69.2
	C115.484,274.733,168.975,274.731,202.073,293.84z"/>
<path style="fill:#C60024;" d="M503.357,138.075L403.246,79.897c-19.294,11.14-29.246,25.523-38.032,38.201
	c-7.893,11.394-14.712,21.242-28.961,29.468c-14.249,8.226-21.102,6.273-29.034,4.016c-8.829-2.509-18.842-5.366-38.124,5.767
	c-19.294,11.14-29.246,25.522-38.032,38.201c-7.893,11.394-14.712,21.242-28.961,29.468c-14.238,8.22-21.09,6.266-29.034,4.016
	c-8.818-2.515-18.83-5.373-38.113,5.761c-19.294,11.14-29.246,25.522-38.032,38.201c-7.893,11.394-14.712,21.242-28.961,29.468
	c-14.238,8.22-21.09,6.266-29.022,4.009c-8.829-2.509-18.83-5.373-38.124,5.767l0.049,17.377l100.111,58.178
	c14.249-8.226,21.102-6.272,29.034-4.016c8.818,2.515,18.83,5.373,38.113-5.76c19.294-11.14,29.246-25.522,38.032-38.201
	c7.893-11.394,14.712-21.242,28.961-29.468c14.238-8.22,21.09-6.266,29.034-4.016c8.818,2.515,18.83,5.373,38.113-5.761
	c19.294-11.14,29.246-25.522,38.032-38.201c7.893-11.394,14.712-21.242,28.961-29.468c14.239-8.22,21.102-6.273,29.034-4.016
	c8.829,2.509,18.83,5.373,38.124-5.767c19.294-11.14,29.246-25.523,38.031-38.201c7.893-11.394,14.712-21.242,28.961-29.468
	L503.357,138.075z"/>
<polygon style="fill:#FE0B37;" points="100.975,387.795 0.865,329.617 0.816,312.24 100.926,370.418 "/>
<path style="fill:#FF3E61;" d="M100.926,370.418L0.816,312.24c19.294-11.14,29.295-8.276,38.124-5.767
	c7.932,2.257,14.784,4.212,29.022-4.009c14.249-8.226,21.068-18.075,28.961-29.468c8.787-12.68,18.738-27.062,38.032-38.201
	c19.283-11.133,29.294-8.276,38.113-5.761c7.943,2.251,14.796,4.205,29.034-4.016c14.249-8.226,21.068-18.075,28.961-29.468
	c8.787-12.68,18.738-27.062,38.032-38.201c19.283-11.133,29.295-8.276,38.124-5.767c7.932,2.257,14.784,4.212,29.034-4.016
	c14.249-8.226,21.068-18.075,28.961-29.468c8.787-12.68,18.738-27.062,38.032-38.201l100.111,58.178
	c-19.294,11.14-29.246,25.522-38.032,38.201c-7.893,11.394-14.712,21.242-28.961,29.468c-14.249,8.226-21.102,6.273-29.034,4.016
	c-8.829-2.509-18.842-5.366-38.124,5.767c-19.294,11.14-29.246,25.522-38.032,38.201c-7.893,11.394-14.712,21.242-28.961,29.468
	c-14.238,8.22-21.09,6.266-29.034,4.016c-8.818-2.515-18.83-5.373-38.113,5.761c-19.294,11.14-29.246,25.522-38.032,38.201
	c-7.893,11.394-14.712,21.242-28.961,29.468c-14.238,8.22-21.09,6.266-29.022,4.009C130.22,362.143,120.22,359.279,100.926,370.418z
	"/>
<path style="fill:#C60024;" d="M503.357,138.075l0.049,17.377c-14.249,8.228-21.068,18.075-28.961,29.468
	c-8.787,12.68-18.738,27.062-38.032,38.201c-19.294,11.14-29.295,8.276-38.124,5.767c-7.932-2.257-14.796-4.205-29.034,4.016
	c-14.249,8.226-21.068,18.075-28.961,29.468c-8.787,12.68-18.738,27.062-38.032,38.201c-19.283,11.133-29.295,8.276-38.113,5.761
	c-7.943-2.251-14.796-4.205-29.034,4.016c-14.249,8.226-21.068,18.075-28.961,29.468c-8.787,12.68-18.738,27.063-38.032,38.201
	c-19.283,11.133-29.295,8.276-38.113,5.761c-7.932-2.257-14.784-4.212-29.034,4.016l-0.049-17.377
	c19.294-11.14,29.295-8.276,38.124-5.767c7.932,2.257,14.784,4.212,29.022-4.009c14.249-8.226,21.068-18.075,28.961-29.468
	c8.787-12.68,18.738-27.062,38.032-38.201c19.283-11.133,29.294-8.276,38.113-5.761c7.943,2.251,14.796,4.205,29.034-4.016
	c14.249-8.226,21.068-18.075,28.961-29.468c8.787-12.68,18.738-27.062,38.032-38.201c19.283-11.133,29.294-8.276,38.124-5.767
	c7.932,2.257,14.784,4.212,29.034-4.016c14.249-8.226,21.068-18.075,28.961-29.468C474.111,163.596,484.063,149.214,503.357,138.075
	z"/>
<path style="fill:#FF9911;" d="M493.816,131.332c-0.063-0.91-0.204-2.12-0.334-3.024c-0.21-1.451-0.649-4.472-1.8-8.375
	c-0.251-0.848-0.605-1.974-0.906-2.806c-0.409-1.13-0.957-2.635-1.456-3.727c-0.724-1.587-1.744-3.679-2.562-5.22
	c-0.527-0.994-1.322-2.267-1.916-3.221c-0.567-0.91-1.367-2.098-2.009-2.957c-1.024-1.368-2.449-3.146-3.541-4.46
	c-0.018-0.022-2.207-2.55-4.583-4.764c-1.24-1.156-2.961-2.621-4.265-3.704c-0.721-0.6-1.725-1.346-2.481-1.903
	c-0.742-0.548-1.74-1.265-2.512-1.769c-1.438-0.936-3.38-2.146-4.85-3.029c-0.089-0.051-0.183-0.095-0.273-0.144
	c0.09,0.049,0.183,0.092,0.271,0.143c-2.261-1.303-4.039-2.198-5.179-2.76c-2.803-1.379-5.273-2.384-5.297-2.394
	c-1.226-0.495-3.506-1.418-5.249-2.001c-0.786-0.263-1.828-0.633-2.621-0.875c-3.553-1.08-3.925-1.193-5.325-1.541
	c-3.159-0.786-3.909-0.973-5.363-1.258c-0.811-0.159-1.888-0.39-2.702-0.53c-3.047-0.522-3.966-0.68-5.409-0.861
	c-0.814-0.102-1.896-0.253-2.713-0.335c-3.604-0.363-3.604-0.363-5.449-0.486c-1.015-0.068-4.104-0.274-8.2-0.273
	c-1.553,0.001-4.682,0.038-8.201,0.273c-3.473,0.232-5.339,0.467-8.164,0.822c-1.453,0.183-2.293,0.327-5.414,0.863
	c-0.817,0.14-1.898,0.372-2.71,0.533c-1.459,0.287-2.21,0.475-5.374,1.265c-1.402,0.35-1.7,0.441-5.34,1.554
	c-0.792,0.242-1.833,0.613-2.619,0.878c-1.725,0.581-3.859,1.448-5.27,2.022c-0.097,0.04-2.416,0.985-5.377,2.451
	c-1.534,0.76-3.533,1.866-5.027,2.702c0.028-0.017,0.059-0.03,0.087-0.046c-0.029,0.017-0.06,0.03-0.088,0.047
	c-80.066,46.529-31.702,17.23-111.77,63.76c1.253-0.728,2.573-1.409,3.94-2.049l-77.572,45.08l-23.135,13.445l-23.322,13.553
	c-23.541,13.68-47.08,27.36-70.62,41.039c0.028-0.016,0.057-0.029,0.086-0.045c-0.028,0.016-0.059,0.029-0.087,0.046
	c-1.64,0.956-4.453,2.655-7.616,5.022c-0.782,0.584-1.817,1.372-2.562,2.003c-1.293,1.096-2.999,2.58-4.225,3.75
	c-2.554,2.438-4.728,5.057-4.747,5.08c-1.071,1.333-2.466,3.139-3.463,4.529c-0.661,0.923-1.464,2.207-2.061,3.173
	c-0.625,1.011-1.41,2.391-1.94,3.454c-0.779,1.565-1.741,3.691-2.423,5.3c-0.491,1.16-1.018,2.758-1.411,3.955
	c-0.277,0.843-0.579,1.987-0.818,2.842c-0.354,1.261-0.691,2.978-0.938,4.264c-0.17,0.884-0.341,2.073-0.455,2.966
	c-0.162,1.272-0.298,2.976-0.377,4.255c-0.056,0.903-0.052,2.109-0.074,3.012c0.072,12.863,8.616,25.724,25.614,35.538
	c16.996,9.813,39.229,14.719,61.435,14.719c22.205,0,44.383-4.907,61.271-14.722l0,0l107.676-61.38c0-0.082-0.003-0.161-0.004-0.242
	l194.804-113.207c16.888-9.814,25.287-22.676,25.214-35.538C493.992,134.619,493.913,132.74,493.816,131.332z"/>
<g>
	<path style="fill:#FEDAAA;" d="M142.111,251.491c-7.048-13.223-15.728-24.607-23.523-33.445
		c-5.243,3.047-10.488,6.095-15.731,9.142c2.687,10.129,6.835,21.963,13.237,33.976c17.201,32.285,44.154,53.63,44.154,53.63
		S159.312,283.786,142.111,251.491z"/>
	<path style="fill:#FEDAAA;" d="M327.026,97.804c2.694,9.958,6.788,21.494,13.031,33.206c17.194,32.289,44.154,53.63,44.154,53.63
		s-0.936-31.007-18.146-63.298c-6.88-12.917-15.319-24.074-22.972-32.821C336.828,92.154,331.542,95.206,327.026,97.804z"/>
	<path style="fill:#FEDAAA;" d="M265.4,174.396c17.201,32.285,44.154,53.63,44.154,53.63s-0.936-31.007-18.137-63.302
		c-7.08-13.285-15.807-24.71-23.63-33.565c-4.436,2.553-9.593,5.533-15.676,9.058C254.796,150.39,258.958,162.303,265.4,174.396z"/>
	<path style="fill:#FEDAAA;" d="M190.75,217.778c17.194,32.289,44.154,53.63,44.154,53.63s-0.936-31.007-18.146-63.298
		c-7.045-13.225-15.724-24.609-23.52-33.447l-15.729,9.141C180.2,193.932,184.348,205.765,190.75,217.778z"/>
</g>
<g>
</g>
<g>
</g>
<g>
</g>
<g>
</g>
<g>
</g>
<g>
</g>
<g>
</g>
<g>
</g>
<g>
</g>
<g>
</g>
<g>
</g>
<g>
</g>
<g>
</g>
<g>
</g>
<g>
</g>
</svg>
