<svg height="512pt" viewBox="0 0 512 512.00082" width="512pt" xmlns="http://www.w3.org/2000/svg"><path d="m157.527344 496.339844c11.460937-17.976563 26.03125-39.59375 40.332031-57.394532 30.574219-38.066406 58.65625-52.417968 101.289063-87.160156 42.636718-34.742187 67.816406-64.476562 90.929687-96.324218 23.109375-31.84375 36.792969-115.417969 63-141.625 26.207031-26.207032 36.191406-36.191407 36.191406-36.191407l-27.457031-27.457031-27.453125-27.457031s-9.984375 9.984375-36.191406 36.191406c-26.210938 26.210937-109.78125 39.890625-141.628907 63.003906-31.847656 23.109375-61.578124 48.292969-96.320312 90.925781-34.746094 42.636719-49.097656 70.714844-87.160156 101.292969-17.800782 14.296875-39.421875 28.867188-57.398438 40.332031-18.273437 11.652344-21.042968 37.226563-5.71875 52.554688l95.03125 95.03125c15.324219 15.324219 40.902344 12.550781 52.554688-5.722656zm0 0" fill="#d7f3ff"/><path d="m460.636719 106.277344c20.585937-20.585938 28.632812-28.632813 28.632812-28.632813l-54.914062-54.914062s-8.046875 8.050781-28.632813 28.632812zm0 0" fill="#bdebff"/><path d="m44.796875 383.613281c17.976563-11.460937 39.597656-26.035156 57.398437-40.332031 38.0625-30.578125 52.414063-58.65625 87.160157-101.292969 34.742187-42.632812 64.472656-67.8125 96.320312-90.925781 31.847657-23.113281 115.417969-36.792969 141.628907-63.003906 26.207031-26.207032 36.191406-36.191406 36.191406-36.191406l-29.136719-29.136719s-9.984375 9.984375-36.195313 36.191406c-26.207031 26.207031-109.777343 39.890625-141.625 63.003906-31.847656 23.109375-61.578124 48.292969-96.324218 90.925781-34.742188 42.632813-49.09375 70.714844-87.160156 101.289063-17.796876 14.300781-39.417969 28.871094-57.394532 40.332031-18.273437 11.652344-21.046875 37.230469-5.71875 52.554688l29.136719 29.140625c-15.324219-15.328125-12.554687-40.902344 5.71875-52.554688zm0 0" fill="#bdebff"/><path d="m351.222656 100.375c-7.757812 2.789062-15.816406 5.519531-23.988281 8.285156-24.0625 8.148438-48.949219 16.574219-61.621094 25.769532-27.402343 19.886718-57.683593 44.332031-93.417969 88.183593-10.335937 12.683594-18.71875 23.902344-26.824218 34.753907-18.5625 24.84375-34.59375 46.296874-62.636719 68.824218-15.390625 12.359375-35.164063 26.261719-58.765625 41.3125-4.730469 3.015625-7.796875 7.945313-8.40625 13.527344-.609375 5.59375 1.324219 11.089844 5.304688 15.070312l95.03125 95.03125c3.492187 3.492188 8.117187 5.414063 13.027343 5.414063h.003907c6.347656 0 12.167968-3.183594 15.566406-8.515625 15.046875-23.597656 28.945312-43.371094 41.3125-58.765625 22.527344-28.042969 43.984375-44.074219 68.828125-62.636719 10.847656-8.105468 22.066406-16.488281 34.75-26.824218 43.851562-35.734376 68.296875-66.015626 88.179687-93.417969 9.199219-12.671875 17.625-37.558594 25.773438-61.625 11.335937-33.46875 22.039062-65.082031 38.808594-81.851563l2.535156-2.535156zm0 0" fill="#444346"/><path d="m189.355469 241.988281c34.742187-42.632812 64.472656-67.8125 96.320312-90.925781 26.46875-19.207031 88.660157-31.902344 123.957031-50.6875h-58.410156c-7.757812 2.789062-15.816406 5.515625-23.988281 8.285156-24.0625 8.148438-48.949219 16.574219-61.621094 25.769532-27.402343 19.886718-57.683593 44.332031-93.417969 88.183593-10.335937 12.683594-18.71875 23.902344-26.824218 34.753907-18.5625 24.839843-34.59375 46.296874-62.636719 68.820312-15.390625 12.363281-35.164063 26.265625-58.765625 41.3125-4.730469 3.019531-7.796875 7.949219-8.40625 13.53125-.609375 5.59375 1.324219 11.085938 5.304688 15.066406l9.019531 9.023438c1.796875-8.5 6.839843-16.363282 14.910156-21.511719 17.976563-11.460937 39.597656-26.03125 57.398437-40.332031 38.0625-30.574219 52.414063-58.652344 87.160157-101.289063zm0 0" fill="#222223"/><path d="m474.734375 98.523438-61.257813-61.257813c-2.46875-2.46875-2.46875-6.472656 0-8.945313l26.46875-26.46875c2.472657-2.46875 6.476563-2.46875 8.945313 0l61.257813 61.257813c2.46875 2.472656 2.46875 6.476563 0 8.945313l-26.46875 26.46875c-2.46875 2.46875-6.472657 2.46875-8.945313 0zm0 0" fill="#f46262"/><path d="m442.617188 57.460938 26.46875-26.46875c2.46875-2.46875 6.472656-2.46875 8.941406 0l-29.136719-29.140626c-2.46875-2.46875-6.472656-2.46875-8.945313 0l-26.464843 26.46875c-2.472657 2.46875-2.472657 6.472657 0 8.945313l29.136719 29.136719c-2.46875-2.46875-2.46875-6.472656 0-8.941406zm0 0" fill="#d65b5b"/><path d="m256.539062 121.925781c-30.898437 22.421875-59.804687 46.792969-93.226562 87.160157l139.605469 139.605468c40.363281-33.425781 64.734375-62.328125 87.160156-93.226562 6.203125-8.550782 11.726563-20.847656 17-34.746094l-115.792969-115.792969c-13.898437 5.269531-26.195312 10.792969-34.746094 17zm0 0" fill="#f46262"/><path d="m276.347656 235.652344c-6.917968-6.917969-6.917968-18.136719 0-25.054688l7.230469-7.230468c1.195313-1.199219 3.136719-1.199219 4.332031 0l20.726563 20.722656c1.195312 1.195312 1.195312 3.136718 0 4.332031l-7.234375 7.230469c-6.917969 6.921875-18.136719 6.921875-25.054688 0zm0 0" fill="#222223"/><path d="m285.675781 151.0625c8.550781-6.203125 20.847657-11.726562 34.746094-17l-29.136719-29.136719c-13.898437 5.269531-26.195312 10.792969-34.746094 17-30.898437 22.421875-59.804687 46.792969-93.226562 87.160157l29.136719 29.136718c33.421875-40.363281 62.328125-64.738281 93.226562-87.160156zm0 0" fill="#d65b5b"/><path d="m344.070312 268.21875c-1.921874 0-3.839843-.730469-5.304687-2.195312-2.929687-2.929688-2.929687-7.679688 0-10.605469l8.273437-8.273438c2.929688-2.929687 7.675782-2.929687 10.605469 0 2.929688 2.929688 2.929688 7.679688 0 10.605469l-8.273437 8.273438c-1.460938 1.464843-3.382813 2.195312-5.300782 2.195312zm0 0" fill="#222223"/><path d="m251.28125 175.429688c-1.921875 0-3.839844-.730469-5.304688-2.195313-2.929687-2.929687-2.929687-7.675781 0-10.605469l8.273438-8.273437c2.925781-2.929688 7.675781-2.929688 10.605469 0 2.929687 2.929687 2.929687 7.679687 0 10.605469l-8.273438 8.273437c-1.460937 1.464844-3.382812 2.195313-5.300781 2.195313zm0 0" fill="#222223"/><g fill="#eaeaea"><path d="m332.566406 287.992188c-1.917968 0-3.835937-.730469-5.300781-2.195313l-8.273437-8.273437c-2.929688-2.929688-2.929688-7.675782 0-10.605469 2.929687-2.929688 7.679687-2.929688 10.605468 0l8.273438 8.273437c2.929687 2.929688 2.929687 7.675782 0 10.605469-1.464844 1.464844-3.382813 2.195313-5.304688 2.195313zm0 0"/><path d="m239.777344 195.203125c-1.917969 0-3.835938-.730469-5.300782-2.195313l-8.273437-8.269531c-2.929687-2.929687-2.929687-7.679687 0-10.609375 2.929687-2.925781 7.679687-2.929687 10.605469 0l8.273437 8.273438c2.929688 2.929687 2.929688 7.675781 0 10.605468-1.464843 1.464844-3.382812 2.195313-5.304687 2.195313zm0 0"/></g></svg>