<?xml version="1.0" encoding="utf-8"?>
<!-- Generator: Adobe Illustrator 22.0.1, SVG Export Plug-In . SVG Version: 6.00 Build 0)  -->
<svg version="1.1" id="Layer_1" xmlns="http://www.w3.org/2000/svg" xmlns:xlink="http://www.w3.org/1999/xlink" x="0px" y="0px"
	 viewBox="0 0 512 512" style="enable-background:new 0 0 512 512;" xml:space="preserve">
<style type="text/css">
	.st0{fill:#FF0000;}
	.st1{fill:#F8F8F8;}
	.st2{fill:#D9D9DD;}
</style>
<circle class="st0" cx="256" cy="256" r="256"/>
<path class="st1" d="M180,282.6l-68.2-55.7c-2.1-1.7-3.3-4.1-3.3-6.9c0-2.8,1.1-5.1,3.3-6.9l68.2-55.7c2.7-2.2,6.2-2.6,9.4-1.1
	c3.2,1.5,5.1,4.5,5.1,8v26.9h122.3c47.6,0,86.6,35,86.6,82.6l0,0c0,38.9-26,72-61.5,82.8c17.7-9.1,29.9-27.6,29.9-48.8l0,0
	c0-30.2-24.7-58.9-54.9-58.9H194.5v26.9c0,3.5-1.9,6.5-5.1,8C186.3,285.3,182.8,284.8,180,282.6z"/>
<path class="st2" d="M180,282.6l-68.2-55.7c-2.1-1.7-3.3-4.1-3.3-6.9h212.8c73.5,2,93,108.5,20.5,136.6
	c17.7-9.1,29.9-27.6,29.9-48.8l0,0c0-30.2-24.7-58.9-54.9-58.9H194.5v26.8c0,3.5-1.9,6.5-5.1,8C186.3,285.3,182.8,284.8,180,282.6z"
	/>
</svg>
